<svg width="18" height="18" viewBox="0 0 18 18" fill="none" xmlns="http://www.w3.org/2000/svg">
<path fill-rule="evenodd" clip-rule="evenodd" d="M7.49819 14.9964C3.35705 14.9964 0 11.6393 0 7.49819C0 3.35705 3.35705 0 7.49819 0C11.6393 0 14.9964 3.35705 14.9964 7.49819C14.9964 9.2975 14.3626 10.9488 13.3061 12.241L17.7782 16.706C17.9202 16.8468 18 17.0384 18 17.2384C18 17.4383 17.9202 17.6299 17.7782 17.7707C17.638 17.9138 17.4462 17.9948 17.2459 17.9957C17.0465 17.9968 16.855 17.9186 16.7135 17.7782L12.2412 13.3059C10.949 14.3625 9.2976 14.9964 7.49819 14.9964ZM7.49819 1.49964C4.18528 1.49964 1.49964 4.18528 1.49964 7.49819C1.49964 10.8111 4.18528 13.4967 7.49819 13.4967C10.8111 13.4967 13.4967 10.8111 13.4967 7.49819C13.4967 5.90727 12.8648 4.38152 11.7398 3.25657C10.6149 2.13163 9.0891 1.49964 7.49819 1.49964Z" fill="white"/>
</svg>
