<svg width="142" height="70" viewBox="0 0 142 70" fill="none" xmlns="http://www.w3.org/2000/svg">
<path fill-rule="evenodd" clip-rule="evenodd" d="M46.6542 38.6113L42.46 38.0163C40.3005 39.5711 37.9011 38.7361 37.0661 36.5766H47.3836V43.295H52.5375V39.9358C53.3725 43.295 57.5763 44.4947 59.9757 41.9705C59.9757 42.6903 59.9757 43.5253 59.7357 44.2452C58.9008 46.1647 56.3765 46.1647 55.0617 44.8498L52.0672 48.804C53.9867 50.3588 55.9063 51.0787 58.4208 50.8387C60.4555 50.5988 61.78 50.2341 63.3349 48.804C64.5346 47.4892 65.1296 46.1647 65.1296 44.3699V27.6988H60.0813V37.1717C60.0813 38.9761 57.5667 38.9761 57.5667 37.1717V27.6988H52.5279V21.4603H47.374V32.6128C45.8192 29.0137 42.5752 27.2189 38.7361 27.814C35.8568 28.4186 33.9373 29.9735 32.8624 32.6128C31.9026 29.4936 29.6279 27.814 26.3839 27.6988C23.0248 27.6988 20.3854 29.2632 19.4256 32.6128C17.746 28.7738 14.2717 26.979 10.1927 27.9387C7.7933 28.6586 6.23848 29.9734 5.15394 32.2577V21.4603H0V43.295H5.15394V38.4961C6.59359 41.3754 9.10817 42.9303 12.3522 43.055C15.8265 42.8151 17.986 41.2603 19.4256 38.141V43.295H24.3396V33.9373C24.5796 31.9026 27.6988 31.7778 27.814 33.9373V43.295H32.8527V38.381C33.9373 40.8956 35.732 42.46 38.4866 43.1798C44.3699 43.7748 46.6542 39.6959 46.6542 38.6113ZM12.1122 38.6113C10.3175 38.6113 8.87782 37.0565 8.87782 35.2522C8.87782 33.4574 10.3175 32.0177 12.1122 32.0177C13.907 32.0177 15.3466 33.4574 15.3466 35.2522C15.3466 37.0565 13.907 38.6113 12.1122 38.6113ZM43.295 34.6571H36.9413C37.9011 31.4227 42.2104 31.4227 43.295 34.6571Z" fill="white"/>
<path fill-rule="evenodd" clip-rule="evenodd" d="M141.882 37.1717L141.642 37.4116C140.682 38.1315 139.367 37.8915 138.887 36.9317C138.408 35.4921 138.648 33.9373 138.648 32.3729H141.767V27.6988H138.648V24.5796H133.734V32.6128C132.774 30.4533 131.459 29.1384 129.299 28.1787C125.105 26.739 121.026 28.4186 119.107 32.6128C118.387 30.4533 117.302 29.1384 115.268 28.1787C111.074 26.739 107.11 28.4186 105.67 32.6128C104.595 29.9735 102.916 28.5338 100.151 27.814C96.3123 27.2093 93.0779 28.7737 91.5135 32.2481V21.4507H86.3596V32.2481C85.6398 30.9236 85.0447 30.0886 83.845 29.1289C78.6911 25.2898 71.7328 29.1289 71.608 35.4825V49.1591H76.6468C76.6468 47.7195 76.522 42.4408 76.522 42.4408L77.1171 42.6807C80.9561 43.6405 84.7952 41.721 86.35 38.7265V43.2854H91.5039V38.7265C92.9436 41.8457 95.6981 43.6405 99.2972 43.4006C100.852 43.5157 102.176 39.2064 102.176 40.4061L102.292 43.4006H105.651L110.69 43.2854V33.9277C110.69 31.893 113.924 31.7682 114.049 33.8029C114.049 36.9221 114.049 40.2813 114.049 43.2758H119.088V38.3618C120.047 40.5213 121.247 41.721 123.406 42.6807C127.361 44.1204 131.68 43.4006 133.244 38.4866L128.925 37.7667C127.965 39.2064 124.491 39.5615 123.291 36.567H133.724C133.724 39.0816 133.724 40.886 135.883 42.4408C138.158 44.1204 142.122 42.556 141.997 41.481L141.882 37.1717ZM79.5165 38.6113C77.7217 38.6113 76.2821 37.1717 76.2821 35.3769C76.2821 33.5726 77.7217 32.1425 79.5165 32.1425C81.3112 32.1425 82.7509 33.5821 82.7509 35.3769C82.7605 37.1717 81.3208 38.6113 79.5165 38.6113ZM98.4718 38.6113C96.6771 38.6113 95.2374 37.1717 95.2374 35.3769C95.2374 33.5726 96.6771 32.1425 98.4718 32.1425C100.267 32.1425 101.706 33.5821 101.706 35.3769C101.706 37.1717 100.267 38.6113 98.4718 38.6113ZM123.301 34.4171C124.136 31.2979 128.58 31.1827 129.539 34.4171H123.301Z" fill="white"/>
<path fill-rule="evenodd" clip-rule="evenodd" d="M69.5637 3.95422C83.1156 3.95422 94.508 12.5921 98.7118 24.7043L100.516 24.0997L102.311 23.5046C97.6368 9.7128 84.7952 0 69.5637 0C54.4474 0 41.5002 9.83757 36.8166 23.5046L40.2909 24.8195C44.6099 12.7073 56.127 3.95422 69.5637 3.95422Z" fill="white"/>
<path fill-rule="evenodd" clip-rule="evenodd" d="M69.5637 65.2448C56.0119 65.2448 44.6195 56.8468 40.3005 44.9745L38.6209 45.5696L36.8261 46.1742C41.5002 59.7261 54.3419 69.199 69.5733 69.199C84.6896 69.199 97.6368 59.6013 102.32 46.1742L98.8461 44.8594C94.508 56.7317 83.0004 65.2448 69.5637 65.2448Z" fill="white"/>
</svg>
